<svg id="Layer_1" data-name="Layer 1" xmlns="http://www.w3.org/2000/svg" viewBox="0 0 23.4 25.91"><defs><style>.cls-1{fill:#48aaad;}.cls-1,.cls-2,.cls-5{stroke:#000;stroke-miterlimit:10;}.cls-1,.cls-2{stroke-width:0.25px;}.cls-2,.cls-5{fill:none;}.cls-3{font-size:4px;}.cls-3,.cls-4{font-family:ElsieSwashCaps-Regular, Elsie Swash Caps;}.cls-4{font-size:2.79px;}.cls-5{stroke-width:0.15px;}</style></defs><rect class="cls-1" x="0.12" y="0.13" width="23.15" height="23.15" rx="11.58"/><rect class="cls-2" x="0.89" y="0.89" width="21.62" height="21.62" rx="10.81"/><line class="cls-2" x1="0.95" y1="11.7" x2="3.31" y2="11.7"/><line class="cls-2" x1="20.15" y1="11.7" x2="22.51" y2="11.7"/><text class="cls-3" transform="matrix(0.68, -0.74, 0.74, 0.67, 4.64, 8.73)">H</text><text class="cls-3" transform="matrix(0.85, -0.53, 0.52, 0.85, 6.5, 6.74)">e</text><text class="cls-3" transform="translate(8.02 5.83) rotate(-18.15)">a</text><text class="cls-3" transform="matrix(0.99, -0.14, 0.14, 0.99, 9.88, 5.25)">l</text><text class="cls-3" transform="translate(10.95 5.09) rotate(-0.8)">t</text><text class="cls-3" transform="translate(12.13 5.01) rotate(9.93)">h</text><text class="cls-3" transform="translate(14.28 5.43) rotate(21.11)">l</text><text class="cls-3" transform="translate(15.28 5.74) rotate(28.94)">i</text><text class="cls-3" transform="translate(16.23 6.18) rotate(40.65)">n</text><text class="cls-3" transform="translate(17.89 7.61) rotate(54.87)">e</text><text class="cls-4" transform="matrix(0.34, 1, -0.95, 0.32, 2.4, 14.07)">k</text><text class="cls-4" transform="matrix(0.53, 0.92, -0.87, 0.5, 3.01, 15.72)">e</text><text class="cls-4" transform="matrix(0.7, 0.8, -0.75, 0.66, 3.92, 17.24)">e</text><text class="cls-4" transform="matrix(0.83, 0.66, -0.62, 0.78, 5.09, 18.55)">p</text><text class="cls-4" transform="matrix(0.91, 0.54, -0.51, 0.86, 6.58, 19.68)">i</text><text class="cls-4" transform="matrix(0.99, 0.38, -0.36, 0.93, 7.57, 20.28)">n</text><text class="cls-4" transform="matrix(1.05, 0.16, -0.15, 0.99, 9.52, 21.01)">g</text><text class="cls-4" transform="matrix(1.06, 0.01, -0.01, 1, 11.26, 21.22)"> </text><text class="cls-4" transform="matrix(1.05, -0.13, 0.12, 0.99, 12.12, 21.24)">y</text><text class="cls-4" transform="matrix(1.01, -0.32, 0.3, 0.95, 13.84, 21.01)">o</text><text class="cls-4" transform="matrix(0.93, -0.52, 0.49, 0.87, 15.67, 20.4)">u</text><text class="cls-4" transform="matrix(0.84, -0.64, 0.61, 0.8, 17.38, 19.36)"> </text><text class="cls-4" transform="matrix(0.73, -0.77, 0.73, 0.69, 18.13, 18.85)">w</text><text class="cls-4" transform="matrix(0.59, -0.88, 0.83, 0.56, 19.89, 16.89)">e</text><text class="cls-4" transform="matrix(0.49, -0.94, 0.89, 0.46, 20.77, 15.54)">l</text><text class="cls-4" transform="matrix(0.4, -0.98, 0.93, 0.38, 21.23, 14.63)">l</text><polyline class="cls-5" points="8.45 12.26 9.46 12.26 9.92 11.18 11.16 13.34 11.62 11.49 12.24 12.26 12.94 9.94 13.56 11.1 14.95 11.18"/><path class="cls-5" d="M54.45,26.59v.07c0,.42-.17,3-4.42,5.14-4.42-2.21-4.43-4.92-4.42-5.19v0A2.34,2.34,0,0,1,48,24.25a2,2,0,0,1,1.35.47,2.07,2.07,0,0,1,.67,1,2.08,2.08,0,0,1,2-1.47A2.33,2.33,0,0,1,54.45,26.59Z" transform="translate(-38.3 -15.76)"/><path d="M53.25,26.47a.36.36,0,0,1,.36.35.37.37,0,0,1-.73,0A.36.36,0,0,1,53.25,26.47Z" transform="translate(-38.3 -15.76)"/><path d="M47.11,27.68a.35.35,0,0,1,.37.34.37.37,0,1,1-.37-.34Z" transform="translate(-38.3 -15.76)"/></svg>